<svg width="40" height="40" viewBox="0 0 40 40" fill="none" xmlns="http://www.w3.org/2000/svg">
<path d="M20.0011 7.00098L1.75781 13.8424L20.0011 22.964L28.6902 18.6195L20.5388 16.1273C20.371 16.2078 20.1873 16.2498 20.0011 16.2502C19.6696 16.2502 19.3516 16.1185 19.1172 15.8841C18.8828 15.6497 18.7511 15.3317 18.7511 15.0002C18.7511 14.6687 18.8828 14.3507 19.1172 14.1163C19.3516 13.8819 19.6696 13.7502 20.0011 13.7502L19.7944 14.4222L21.2426 14.8678C21.2428 14.8692 21.243 14.8707 21.2432 14.8721L23.3802 15.5257L35.548 19.2693V20.2182C35.3797 20.3327 35.2419 20.4866 35.1466 20.6665C35.0513 20.8463 35.0013 21.0467 35.0011 21.2503C35.0013 21.4585 35.0536 21.6634 35.1531 21.8463C35.2526 22.0292 35.3962 22.1843 35.5709 22.2976C35.0019 24.448 35.0011 29.327 35.0011 31.2502C36.2511 32.0623 36.2511 32.092 37.5011 31.2502C37.5011 29.3272 37.5005 24.4492 36.9316 22.2983C37.1063 22.1849 37.25 22.0296 37.3494 21.8466C37.4489 21.6635 37.501 21.4585 37.5011 21.2502C37.5011 21.0464 37.4512 20.8457 37.3559 20.6656C37.2606 20.4855 37.1227 20.3315 36.9542 20.2168V18.2309L32.3195 16.8049L38.2444 13.8424L20.0011 7.00098ZM9.34664 19.4533L8.32141 25.6049C10.3663 25.8723 12.8125 27.0609 15.0612 28.4664C16.3402 29.2657 17.538 30.1432 18.5109 30.9945C19.1056 31.5148 19.6029 32.014 20.0011 32.5052C20.3993 32.0139 20.8966 31.5148 21.4913 30.9945C22.4641 30.1432 23.662 29.2657 24.9409 28.4664C27.1897 27.0609 29.6359 25.8723 31.6808 25.6049L30.6554 19.4533H30.1671L20.0011 24.5364L9.83492 19.4533H9.34664Z" fill="white"/>
</svg>
